HIERARCHY
ROOT Hips
{
  OFFSET -4.35178 90.3298 111.633
  CHANNELS 6 Xposition Yposition Zposition Zrotation Xrotation Yrotation
  JOINT LeftUpLeg
  {
    OFFSET 0.103456 1.85784 10.5485
    CHANNELS 6 Xposition Yposition Zposition Zrotation Xrotation Yrotation
    JOINT LeftLeg
    {
      OFFSET 43.5 -4.2e-05 0
      CHANNELS 6 Xposition Yposition Zposition Zrotation Xrotation Yrotation
      JOINT LeftFoot
      {
        OFFSET 42.3722 1.9e-05 0
        CHANNELS 6 Xposition Yposition Zposition Zrotation Xrotation Yrotation
        JOINT LeftToe
        {
          OFFSET 17.3 0 0
          CHANNELS 6 Xposition Yposition Zposition Zrotation Xrotation Yrotation
          End Site
          {
            OFFSET 0 0 0
          }
        }
      }
    }
  }
  JOINT RightUpLeg
  {
    OFFSET 0.103456 1.85782 -10.5485
    CHANNELS 6 Xposition Yposition Zposition Zrotation Xrotation Yrotation
    JOINT RightLeg
    {
      OFFSET 43.5 -2.7e-05 0
      CHANNELS 6 Xposition Yposition Zposition Zrotation Xrotation Yrotation
      JOINT RightFoot
      {
        OFFSET 42.3723 0 0
        CHANNELS 6 Xposition Yposition Zposition Zrotation Xrotation Yrotation
        JOINT RightToe
        {
          OFFSET 17.3 0 1.7e-05
          CHANNELS 6 Xposition Yposition Zposition Zrotation Xrotation Yrotation
          End Site
          {
            OFFSET 0 0 0
          }
        }
      }
    }
  }
  JOINT Spine
  {
    OFFSET 6.90197 -2.60373 0
    CHANNELS 6 Xposition Yposition Zposition Zrotation Xrotation Yrotation
    JOINT Spine1
    {
      OFFSET 12.5881 0 0
      CHANNELS 6 Xposition Yposition Zposition Zrotation Xrotation Yrotation
      JOINT Spine2
      {
        OFFSET 12.3432 -1.8e-05 0
        CHANNELS 6 Xposition Yposition Zposition Zrotation Xrotation Yrotation
        JOINT Neck
        {
          OFFSET 25.8329 2.3e-05 0
          CHANNELS 6 Xposition Yposition Zposition Zrotation Xrotation Yrotation
          JOINT Head
          {
            OFFSET 11.7666 0 0
            CHANNELS 6 Xposition Yposition Zposition Zrotation Xrotation Yrotation
            End Site
            {
              OFFSET 0 0 0
            }
          }
        }
        JOINT LeftShoulder
        {
          OFFSET 19.7459 -1.48035 6.0001
          CHANNELS 6 Xposition Yposition Zposition Zrotation Xrotation Yrotation
          JOINT LeftArm
          {
            OFFSET 11.2841 1.8e-05 -2e-05
            CHANNELS 6 Xposition Yposition Zposition Zrotation Xrotation Yrotation
            JOINT LeftForeArm
            {
              OFFSET 33 -1.3e-05 1.9e-05
              CHANNELS 6 Xposition Yposition Zposition Zrotation Xrotation Yrotation
              JOINT LeftHand
              {
                OFFSET 25.2 3.2e-05 1.1e-05
                CHANNELS 6 Xposition Yposition Zposition Zrotation Xrotation Yrotation
                End Site
                {
                  OFFSET 0 0 0
                }
              }
            }
          }
        }
        JOINT RightShoulder
        {
          OFFSET 19.7461 -1.48036 -6.00008
          CHANNELS 6 Xposition Yposition Zposition Zrotation Xrotation Yrotation
          JOINT RightArm
          {
            OFFSET 11.2841 0 0
            CHANNELS 6 Xposition Yposition Zposition Zrotation Xrotation Yrotation
            JOINT RightForeArm
            {
              OFFSET 33.0001 1.6e-05 0
              CHANNELS 6 Xposition Yposition Zposition Zrotation Xrotation Yrotation
              JOINT RightHand
              {
                OFFSET 25.1998 0.000123 0.000432
                CHANNELS 6 Xposition Yposition Zposition Zrotation Xrotation Yrotation
                End Site
                {
                  OFFSET 0 0 0
                }
              }
            }
          }
        }
      }
    }
  }
}
MOTION
Frames:	7
Frame Time:	0.0333333
-20.302 91.3338 0.0593065 52.7536 82.9069 39.2469 0.103456 1.85784 10.5485 5.12133 12.5373 -175.841 43.5 -4.2e-05 1e-05 -17.7111 -9.11011 -2.93785 42.3722 1.9e-05 5.55112e-16 77.5627 1.25961 -0.244917 17.3 1.77636e-15 3e-06 21.4546 -1e-06 0.003093 0.103456 1.85782 -10.5485 10.2999 1.28373 173.329 43.5 -2.7e-05 4e-06 -4.34308 10.5361 1.78615 42.3723 8.88178e-16 1e-05 82.0593 7.30894 -9.62969 17.3 -6e-06 1.7e-05 21.4546 -1.9e-05 -0.003116 6.90197 -2.60373 -3e-06 7.04581 0.0509245 -0.0879192 12.5881 1e-05 8e-06 4.06996 0.15659 -0.164001 12.3432 -1.8e-05 -5e-06 3.74971 0.204081 -0.162728 25.8329 2.3e-05 7e-06 5.04363 -0.177349 -4.63693 11.7666 -8e-06 -6e-06 -18.7412 -6.10718 10.8176 19.7459 -1.48035 6.0001 172.792 -8.15921 -102.932 11.2841 1.8e-05 -2e-05 13.8546 -30.6696 37.5925 33 -1.3e-05 1.9e-05 -17.9549 7.59739 -18.7214 25.2 3.2e-05 1.1e-05 0.101487 28.4658 3.83794 19.7461 -1.48036 -6.00008 -178.702 -1.24546 82.0824 11.2841 0 -1e-06 10.0792 4.16968 -5.46184 33.0001 1.6e-05 -1e-06 -26.5746 8.24565 20.3479 25.1998 0.000123 0.000432 16.8873 -11.9208 6.75465 
-20.3019 91.3343 0.0593996 52.7536 82.9069 39.2469 0.103456 1.85784 10.5485 5.12056 12.5476 -175.841 43.5 -4.2e-05 1e-05 -17.669 -9.10542 -2.93781 42.3722 1.9e-05 7.77156e-16 77.5543 1.2288 -0.292867 17.3 8.88178e-16 3e-06 21.4546 -1e-06 0.003093 0.103456 1.85782 -10.5485 10.3029 1.28373 173.329 43.5 -2.7e-05 4e-06 -4.36174 10.5361 1.78615 42.3723 4.44089e-16 1e-05 82.0632 7.29574 -9.6294 17.3 -6e-06 1.7e-05 21.4546 -1.9e-05 -0.003116 6.90197 -2.60373 -3e-06 7.04581 0.0509245 -0.0879192 12.5881 1e-05 8e-06 4.07647 0.153234 -0.164001 12.3432 -1.8e-05 -5e-06 3.75624 0.20136 -0.162728 25.8329 2.3e-05 7e-06 5.04259 -0.190135 -4.63693 11.7666 -8e-06 -6e-06 -18.7437 -6.10745 10.8042 19.7459 -1.48035 6.0001 172.818 -8.1749 -102.906 11.2841 1.8e-05 -2e-05 13.7153 -30.5986 37.473 33 -1.3e-05 1.9e-05 -18.0841 7.58083 -18.6863 25.2 3.2e-05 1.1e-05 0.116121 28.478 3.82743 19.7461 -1.48036 -6.00008 -178.733 -1.24929 82.0909 11.2841 0 -1e-06 10.064 4.15823 -5.38099 33.0001 1.6e-05 -1e-06 -26.619 8.26902 20.3492 25.1998 0.000123 0.000432 16.9192 -11.9115 6.74291 
-20.3023 91.3335 0.0579902 52.7717 82.9224 39.2295 0.103456 1.85784 10.5485 5.11868 12.5554 -175.84 43.5 -4.2e-05 1e-05 -17.659 -9.0978 -2.93774 42.3722 1.9e-05 -4.44089e-16 77.5704 1.2399 -0.31843 17.3 -8.88178e-16 3e-06 21.4546 -1e-06 0.003093 0.103456 1.85782 -10.5485 10.3256 1.28584 173.319 43.5 -2.7e-05 4e-06 -4.31341 10.5474 1.78621 42.3723 -8.88178e-16 1e-05 82.0715 7.30569 -9.62415 17.3 -6e-06 1.7e-05 21.4546 -1.9e-05 -0.003116 6.90197 -2.60373 -3e-06 7.04733 0.0509245 -0.0879192 12.5881 1e-05 8e-06 4.07961 0.142961 -0.164001 12.3432 -1.8e-05 -5e-06 3.75952 0.191587 -0.162728 25.8329 2.3e-05 7e-06 5.04179 -0.20012 -4.63416 11.7666 -8e-06 -6e-06 -18.7541 -6.10943 10.7875 19.7459 -1.48035 6.0001 172.794 -8.21095 -102.912 11.2841 1.8e-05 -2e-05 13.6662 -30.6069 37.4092 33 -1.3e-05 1.9e-05 -18.1496 7.56852 -18.6743 25.2 3.2e-05 1.1e-05 0.179455 28.4899 3.81688 19.7461 -1.48036 -6.00008 -178.74 -1.2266 82.0523 11.2841 0 -1e-06 10.011 4.04571 -5.2762 33.0001 1.6e-05 -1e-06 -26.633 8.21802 20.3425 25.1998 0.000123 0.000432 16.8557 -11.9485 6.75994 
-20.3007 91.3339 0.0566957 52.7819 82.9424 39.2321 0.103456 1.85784 10.5485 5.14337 12.5731 -175.851 43.5 -4.2e-05 1e-05 -17.6174 -9.09193 -2.9377 42.3722 1.9e-05 -2.22045e-16 77.5882 1.25099 -0.356501 17.3 2.22045e-16 3e-06 21.4546 -1e-06 0.003093 0.103456 1.85782 -10.5485 10.3325 1.30275 173.289 43.5 -2.7e-05 4e-06 -4.3057 10.5509 1.78623 42.3723 0 1e-05 82.1058 7.34248 -9.62027 17.3 -6e-06 1.7e-05 21.4546 -1.9e-05 -0.003116 6.90197 -2.60373 -3e-06 7.05631 0.0506254 -0.0879192 12.5881 1e-05 8e-06 4.09769 0.13642 -0.165523 12.3432 -1.8e-05 -5e-06 3.77769 0.185221 -0.163809 25.8329 2.3e-05 7e-06 5.0388 -0.237677 -4.6218 11.7666 -8e-06 -6e-06 -18.7667 -6.14017 10.7522 19.7459 -1.48035 6.0001 172.785 -8.23796 -102.877 11.2841 1.8e-05 -2e-05 13.5679 -30.5717 37.3259 33 -1.3e-05 1.9e-05 -18.1701 7.60057 -18.6715 25.2 3.2e-05 1.1e-05 0.162282 28.5101 3.81738 19.7461 -1.48036 -6.00008 -178.745 -1.22095 82.0398 11.2841 0 -1e-06 10.0338 4.04997 -5.27444 33.0001 1.6e-05 -1e-06 -26.7236 8.22941 20.3627 25.1998 0.000123 0.000432 16.8565 -11.9453 6.76098 
-20.2998 91.3337 0.0604055 52.9157 82.9603 39.1048 0.103456 1.85784 10.5485 5.16119 12.5873 -175.865 43.5 -4.2e-05 1e-05 -17.5423 -9.08299 -2.93762 42.3722 1.9e-05 -4.44089e-16 77.5702 1.2048 -0.414969 17.3 6.66134e-16 3e-06 21.4546 -1e-06 0.003093 0.103456 1.85782 -10.5485 10.3397 1.3169 173.287 43.5 -2.7e-05 4e-06 -4.2646 10.5603 1.78711 42.3723 4.44089e-16 1e-05 82.0978 7.3455 -9.63654 17.3 -6e-06 1.7e-05 21.4546 -1.9e-05 -0.003116 6.90197 -2.60373 -3e-06 7.06152 0.0500387 -0.0879192 12.5881 1e-05 8e-06 4.10816 0.134108 -0.165128 12.3432 -1.8e-05 -5e-06 3.78817 0.183489 -0.16328 25.8329 2.3e-05 7e-06 5.03907 -0.282265 -4.60979 11.7666 -8e-06 -6e-06 -18.7714 -6.16711 10.6959 19.7459 -1.48035 6.0001 172.76 -8.25875 -102.874 11.2841 1.8e-05 -2e-05 13.5589 -30.6053 37.3754 33 -1.3e-05 1.9e-05 -18.1072 7.68953 -18.7016 25.2 3.2e-05 1.1e-05 0.138051 28.5504 3.81607 19.7461 -1.48036 -6.00008 -178.758 -1.21077 82.0335 11.2841 0 -1e-06 10.0271 4.0478 -5.27906 33.0001 1.6e-05 -1e-06 -26.6764 8.2191 20.3536 25.1998 0.000123 0.000432 16.8512 -11.9383 6.75956 
-20.2902 91.332 0.0680099 53.0665 82.9798 38.964 0.103456 1.85784 10.5485 5.18915 12.6017 -175.882 43.5 -4.2e-05 1e-05 -17.456 -9.0829 -2.93762 42.3722 1.9e-05 -2.22045e-16 77.5489 1.18179 -0.463147 17.3 0 3e-06 21.4546 -1e-06 0.003093 0.103456 1.85782 -10.5485 10.3662 1.32317 173.268 43.5 -2.7e-05 4e-06 -4.15385 10.58 1.80268 42.3723 -8.88178e-16 1e-05 82.0548 7.31857 -9.65796 17.3 -6e-06 1.7e-05 21.4546 -1.9e-05 -0.003116 6.90197 -2.60373 -3e-06 7.06405 0.0500273 -0.0902185 12.5881 1e-05 8e-06 4.11315 0.136183 -0.163512 12.3432 -1.8e-05 -5e-06 3.79316 0.185339 -0.161767 25.8329 2.3e-05 7e-06 5.05276 -0.295374 -4.61075 11.7666 -8e-06 -6e-06 -18.7648 -6.16919 10.6708 19.7459 -1.48035 6.0001 172.736 -8.27581 -102.849 11.2841 1.8e-05 -2e-05 13.5408 -30.6151 37.4021 33 -1.3e-05 1.9e-05 -18.0178 7.76432 -18.7281 25.2 3.2e-05 1.1e-05 0.0839228 28.57 3.83638 19.7461 -1.48036 -6.00008 -178.787 -1.18769 82.0263 11.2841 0 -1e-06 10.0068 4.08173 -5.33968 33.0001 1.6e-05 -1e-06 -26.6179 8.22493 20.343 25.1998 0.000123 0.000432 16.8786 -11.935 6.74898 
-20.2828 91.3324 0.077124 53.1016 83.0108 38.9365 0.103456 1.85784 10.5485 5.17271 12.5784 -175.906 43.5 -4.2e-05 1e-05 -17.444 -9.08653 -2.93765 42.3722 1.9e-05 5.55112e-16 77.5412 1.21112 -0.442961 17.3 0 3e-06 21.4546 -1e-06 0.003093 0.103456 1.85782 -10.5485 10.3725 1.31579 173.253 43.5 -2.7e-05 4e-06 -4.12548 10.5833 1.8012 42.3723 -1.77636e-15 1e-05 82.0351 7.30989 -9.66751 17.3 -6e-06 1.7e-05 21.4546 -1.9e-05 -0.003116 6.90197 -2.60373 -3e-06 7.07499 0.0514545 -0.0896206 12.5881 1e-05 8e-06 4.13508 0.14486 -0.160149 12.3432 -1.8e-05 -5e-06 3.81494 0.194555 -0.158912 25.8329 2.3e-05 7e-06 5.05242 -0.307339 -4.60944 11.7666 -8e-06 -6e-06 -18.7462 -6.17498 10.6603 19.7459 -1.48035 6.0001 172.725 -8.2907 -102.832 11.2841 1.8e-05 -2e-05 13.5035 -30.6281 37.4711 33 -1.3e-05 1.9e-05 -17.9476 7.79916 -18.7192 25.2 3.2e-05 1.1e-05 0.0978645 28.5809 3.84346 19.7461 -1.48036 -6.00008 -178.773 -1.18806 82.0064 11.2841 -3.55271e-15 -1e-06 10.0621 4.13442 -5.43782 33.0001 1.6e-05 -1e-06 -26.5744 8.19743 20.3269 25.1998 0.000123 0.000432 16.8385 -11.9459 6.73126 
